# xmcd
# 
# Track frame offsets:
#     150
#     31995
#     59522
#     88684
#     126935
#     153080
#     184878
#     214839
#     238180
#     266692
# 
# Disc length: 3936
# 
# Revision: 1
# Processed by: cddbd v1.5.2PL0 Copyright (c) Steve Scherf et al.
# Submitted via: BonkEnc v1.0rc2
# 
DISCID=8d0f5e0a
DTITLE=Anzan - Zen and the Art of Relaxation
DYEAR=2001
DGENRE=New Age
TTITLE0=Heart of Dawn
TTITLE1=The Winding Path
TTITLE2=Peaceful Passage
TTITLE3=Temple Garden
TTITLE4=Reflections in the Pond
TTITLE5=Mother and Child
TTITLE6=Petals of Wisdom
TTITLE7=Patience
TTITLE8=The Bridge
TTITLE9=Quiet Mountain
EXTD=YEAR: 2001
EXTT0=
EXTT1=
EXTT2=
EXTT3=
EXTT4=
EXTT5=
EXTT6=
EXTT7=
EXTT8=
EXTT9=
PLAYORDER=
